<svg xmlns="http://www.w3.org/2000/svg" width="256" height="256" viewBox="0 0 100 100"><rect width="100" height="100" rx="0" fill="#2d2929"></rect><path d="M19.50 77.68L19.50 22.40L31.53 22.40L31.53 77.68L19.50 77.68ZM43.82 77.68L43.82 22.40Q46.22 22.32 52.95 22.32L52.95 22.32Q59.75 22.32 62.16 22.40L62.16 22.40Q70.71 22.57 75.61 26.97Q80.50 31.37 80.50 39.17L80.50 39.17Q80.50 44.73 78.01 49.00Q75.52 53.28 71.00 55.60Q66.48 57.93 60.75 57.93L60.75 57.93L55.35 57.93L55.35 77.68L43.82 77.68ZM55.35 48.13L60.25 48.13Q64.32 48.13 66.60 45.81Q68.88 43.48 68.88 39.50L68.88 39.50Q68.88 32.20 60.83 32.20L60.83 32.20L55.35 32.20L55.35 48.13Z" fill="#1095c1"></path></svg>